<svg width="1280" height="386" viewBox="0 0 1280 386" fill="none" xmlns="http://www.w3.org/2000/svg"><g clip-path="url(#clip0_105_9)"><rect width="1280" height="385.002" rx="20" fill="#FFD9AB" fill-opacity="0.25"/><rect x="-162" y="97" width="662" height="48" rx="24" fill="#FF9600" fill-opacity="0.04"/><rect x="-161.667" y="97.3333" width="661.333" height="47.3333" rx="23.6667" stroke="#FF9600" stroke-opacity="0.06" stroke-width="0.666667"/><rect x="902" y="196" width="662" height="48" rx="24" fill="#FF9600" fill-opacity="0.04"/><rect x="902.5" y="196.5" width="661" height="47" rx="23.5" stroke="#FF9600" stroke-opacity="0.06"/><rect x="470" y="360" width="653" height="48" rx="24" fill="#FF9600" fill-opacity="0.06"/><rect x="470.333" y="360.333" width="652.333" height="47.3333" rx="23.6667" stroke="#FF9600" stroke-opacity="0.06" stroke-width="0.666667"/><rect opacity="0.06" x="755" y="-9" width="352" height="48" rx="24" fill="#FF9600"/><rect opacity="0.06" x="-22" y="59" width="392" height="16" rx="8" fill="#FF9600"/><rect opacity="0.06" x="-239" y="220" width="392" height="16" rx="8" fill="#FF9600"/><rect opacity="0.06" x="1051" y="143" width="392" height="16" rx="8" fill="#FF9600"/><rect opacity="0.06" x="1112" y="294" width="392" height="16" rx="8" fill="#FF9600"/><rect opacity="0.06" x="83" y="327" width="334" height="16" rx="8" fill="#FF9600"/><rect opacity="0.06" x="223" y="277" width="232" height="8" rx="4" fill="#FF9600"/><rect opacity="0.06" x="43" y="39" width="187" height="8" rx="4" fill="#FF9600"/><rect opacity="0.06" x="333" y="19" width="102" height="6" rx="3" fill="#FF9600"/><rect opacity="0.06" x="728" y="299" width="102" height="6" rx="3" fill="#FF9600"/><rect opacity="0.06" x="32" y="294" width="102" height="6" rx="3" fill="#FF9600"/><rect opacity="0.06" x="910" y="115" width="102" height="6" rx="3" fill="#FF9600"/><rect opacity="0.06" x="1131" y="81" width="112" height="4" rx="2" fill="#FF9600"/><rect opacity="0.06" x="973" y="63" width="242" height="7" rx="3.5" fill="#FF9600"/><rect opacity="0.06" x="903" y="323" width="142" height="7" rx="3.5" fill="#FF9600"/><g opacity="0.15"><rect x="51" y="37" width="1.00003" height="12" rx="0.500015" fill="#FF9600"/><rect x="61" y="37" width="1.00003" height="12" rx="0.500015" fill="#FF9600"/><rect x="71" y="37" width="1.00003" height="12" rx="0.500015" fill="#FF9600"/><rect x="81" y="37" width="1.00003" height="12" rx="0.500015" fill="#FF9600"/><rect x="91" y="37" width="1.00003" height="12" rx="0.500015" fill="#FF9600"/><rect x="101" y="37" width="1.00003" height="12" rx="0.500015" fill="#FF9600"/><rect x="111" y="37" width="1.00003" height="12" rx="0.500015" fill="#FF9600"/><rect x="121" y="37" width="1.00003" height="12" rx="0.500015" fill="#FF9600"/><rect x="131" y="37" width="1.00003" height="12" rx="0.500015" fill="#FF9600"/><rect x="141" y="37" width="1.00003" height="12" rx="0.500015" fill="#FF9600"/><rect x="151" y="37" width="1.00003" height="12" rx="0.500015" fill="#FF9600"/><rect x="161" y="37" width="1.00003" height="12" rx="0.500015" fill="#FF9600"/><rect x="171" y="37" width="1.00003" height="12" rx="0.500015" fill="#FF9600"/><rect x="181" y="37" width="1.00003" height="12" rx="0.500015" fill="#FF9600"/><rect x="191" y="37" width="1.00003" height="12" rx="0.500015" fill="#FF9600"/><rect x="201" y="37" width="1.00003" height="12" rx="0.500015" fill="#FF9600"/><rect x="211" y="37" width="1.00003" height="12" rx="0.500015" fill="#FF9600"/><rect x="221" y="37" width="1.00003" height="12" rx="0.500015" fill="#FF9600"/></g><g opacity="0.15"><rect x="9" y="218" width="1.00003" height="20" rx="0.500015" fill="#FF9600"/><rect x="22" y="218" width="1.00003" height="20" rx="0.500015" fill="#FF9600"/><rect x="35" y="218" width="1.00003" height="20" rx="0.500015" fill="#FF9600"/><rect x="48" y="218" width="1.00003" height="20" rx="0.500015" fill="#FF9600"/><rect x="61" y="218" width="1.00003" height="20" rx="0.500015" fill="#FF9600"/><rect x="74" y="218" width="1.00003" height="20" rx="0.500015" fill="#FF9600"/><rect x="87" y="218" width="1.00003" height="20" rx="0.500015" fill="#FF9600"/><rect x="100" y="218" width="1.00003" height="20" rx="0.500015" fill="#FF9600"/><rect x="113" y="218" width="1.00003" height="20" rx="0.500015" fill="#FF9600"/><rect x="126" y="218" width="1.00003" height="20" rx="0.500015" fill="#FF9600"/><rect x="139" y="218" width="1.00003" height="20" rx="0.500015" fill="#FF9600"/></g><g opacity="0.15"><rect x="97" y="325" width="1.00003" height="20" rx="0.500015" fill="#FF9600"/><rect x="110" y="325" width="1.00003" height="20" rx="0.500015" fill="#FF9600"/><rect x="123" y="325" width="1.00003" height="20" rx="0.500015" fill="#FF9600"/><rect x="136" y="325" width="1.00003" height="20" rx="0.500015" fill="#FF9600"/><rect x="149" y="325" width="1.00003" height="20" rx="0.500015" fill="#FF9600"/><rect x="162" y="325" width="1.00003" height="20" rx="0.500015" fill="#FF9600"/><rect x="175" y="325" width="1.00003" height="20" rx="0.500015" fill="#FF9600"/><rect x="188" y="325" width="1.00003" height="20" rx="0.500015" fill="#FF9600"/><rect x="201" y="325" width="1.00003" height="20" rx="0.500015" fill="#FF9600"/><rect x="214" y="325" width="1.00003" height="20" rx="0.500015" fill="#FF9600"/><rect x="227" y="325" width="1.00003" height="20" rx="0.500015" fill="#FF9600"/><rect x="240" y="325" width="1.00003" height="20" rx="0.500015" fill="#FF9600"/><rect x="253" y="325" width="1.00003" height="20" rx="0.500015" fill="#FF9600"/><rect x="266" y="325" width="1.00003" height="20" rx="0.500015" fill="#FF9600"/><rect x="279" y="325" width="1.00003" height="20" rx="0.500015" fill="#FF9600"/><rect x="292" y="325" width="1.00003" height="20" rx="0.500015" fill="#FF9600"/><rect x="305" y="325" width="1.00003" height="20" rx="0.500015" fill="#FF9600"/><rect x="318" y="325" width="1.00003" height="20" rx="0.500015" fill="#FF9600"/><rect x="330" y="325" width="1.00003" height="20" rx="0.500015" fill="#FF9600"/><rect x="342" y="325" width="1.00003" height="20" rx="0.500015" fill="#FF9600"/><rect x="354" y="325" width="1.00003" height="20" rx="0.500015" fill="#FF9600"/><rect x="366" y="325" width="1.00003" height="20" rx="0.500015" fill="#FF9600"/><rect x="378" y="325" width="1.00003" height="20" rx="0.500015" fill="#FF9600"/><rect x="390" y="325" width="1.00003" height="20" rx="0.500015" fill="#FF9600"/><rect x="402" y="325" width="1.00003" height="20" rx="0.500015" fill="#FF9600"/></g><g opacity="0.15"><rect x="1126" y="292" width="1.00003" height="20" rx="0.500015" fill="#FF9600"/><rect x="1139" y="292" width="1.00003" height="20" rx="0.500015" fill="#FF9600"/><rect x="1152" y="292" width="1.00003" height="20" rx="0.500015" fill="#FF9600"/><rect x="1165" y="292" width="1.00003" height="20" rx="0.500015" fill="#FF9600"/><rect x="1178" y="292" width="1.00003" height="20" rx="0.500015" fill="#FF9600"/><rect x="1191" y="292" width="1.00003" height="20" rx="0.500015" fill="#FF9600"/><rect x="1204" y="292" width="1.00003" height="20" rx="0.500015" fill="#FF9600"/><rect x="1217" y="292" width="1.00003" height="20" rx="0.500015" fill="#FF9600"/><rect x="1230" y="292" width="1.00003" height="20" rx="0.500015" fill="#FF9600"/><rect x="1243" y="292" width="1.00003" height="20" rx="0.500015" fill="#FF9600"/><rect x="1256" y="292" width="1.00003" height="20" rx="0.500015" fill="#FF9600"/><rect x="1269" y="292" width="1.00003" height="20" rx="0.500015" fill="#FF9600"/></g><g opacity="0.15"><rect x="1064" y="141" width="1.00003" height="20" rx="0.500015" fill="#FF9600"/><rect x="1077" y="141" width="1.00003" height="20" rx="0.500015" fill="#FF9600"/><rect x="1090" y="141" width="1.00003" height="20" rx="0.500015" fill="#FF9600"/><rect x="1103" y="141" width="1.00003" height="20" rx="0.500015" fill="#FF9600"/><rect x="1116" y="141" width="1.00003" height="20" rx="0.500015" fill="#FF9600"/><rect x="1129" y="141" width="1.00003" height="20" rx="0.500015" fill="#FF9600"/><rect x="1142" y="141" width="1.00003" height="20" rx="0.500015" fill="#FF9600"/><rect x="1155" y="141" width="1.00003" height="20" rx="0.500015" fill="#FF9600"/><rect x="1168" y="141" width="1.00003" height="20" rx="0.500015" fill="#FF9600"/><rect x="1181" y="141" width="1.00003" height="20" rx="0.500015" fill="#FF9600"/><rect x="1194" y="141" width="1.00003" height="20" rx="0.500015" fill="#FF9600"/><rect x="1207" y="141" width="1.00003" height="20" rx="0.500015" fill="#FF9600"/><rect x="1220" y="141" width="1.00003" height="20" rx="0.500015" fill="#FF9600"/><rect x="1233" y="141" width="1.00003" height="20" rx="0.500015" fill="#FF9600"/><rect x="1246" y="141" width="1.00003" height="20" rx="0.500015" fill="#FF9600"/><rect x="1259" y="141" width="1.00003" height="20" rx="0.500015" fill="#FF9600"/><rect x="1272" y="141" width="1.00003" height="20" rx="0.500015" fill="#FF9600"/></g><g opacity="0.15"><rect x="1" y="93" width="1.00003" height="56" rx="0.500015" fill="#FF9600"/><rect x="26" y="93" width="1.00003" height="56" rx="0.500015" fill="#FF9600"/><rect x="51" y="93" width="1.00003" height="56" rx="0.500015" fill="#FF9600"/><rect x="76" y="93" width="1.00003" height="56" rx="0.500015" fill="#FF9600"/><rect x="101" y="93" width="1.00003" height="56" rx="0.500015" fill="#FF9600"/><rect x="126" y="93" width="1.00003" height="56" rx="0.500015" fill="#FF9600"/><rect x="151" y="93" width="1.00003" height="56" rx="0.500015" fill="#FF9600"/><rect x="176" y="93" width="1.00003" height="56" rx="0.500015" fill="#FF9600"/><rect x="201" y="93" width="1.00003" height="56" rx="0.500015" fill="#FF9600"/><rect x="226" y="93" width="1.00003" height="56" rx="0.500015" fill="#FF9600"/><rect x="251" y="93" width="1.00003" height="56" rx="0.500015" fill="#FF9600"/><rect x="276" y="93" width="1.00003" height="56" rx="0.500015" fill="#FF9600"/><rect x="301" y="93" width="1.00003" height="56" rx="0.500015" fill="#FF9600"/><rect x="326" y="93" width="1.00003" height="56" rx="0.500015" fill="#FF9600"/><rect x="351" y="93" width="1.00003" height="56" rx="0.500015" fill="#FF9600"/><rect x="376" y="93" width="1.00003" height="56" rx="0.500015" fill="#FF9600"/><rect x="401" y="93" width="1.00003" height="56" rx="0.500015" fill="#FF9600"/><rect x="426" y="93" width="1.00003" height="56" rx="0.500015" fill="#FF9600"/><rect x="451" y="93" width="1.00003" height="56" rx="0.500015" fill="#FF9600"/><rect x="476" y="93" width="1.00003" height="56" rx="0.500015" fill="#FF9600"/></g><g opacity="0.15"><rect x="928" y="192" width="1.00003" height="56" rx="0.500015" fill="#FF9600"/><rect x="953" y="192" width="1.00003" height="56" rx="0.500015" fill="#FF9600"/><rect x="978" y="192" width="1.00003" height="56" rx="0.500015" fill="#FF9600"/><rect x="1003" y="192" width="1.00003" height="56" rx="0.500015" fill="#FF9600"/><rect x="1028" y="192" width="1.00003" height="56" rx="0.500015" fill="#FF9600"/><rect x="1053" y="192" width="1.00003" height="56" rx="0.500015" fill="#FF9600"/><rect x="1078" y="192" width="1.00003" height="56" rx="0.500015" fill="#FF9600"/><rect x="1103" y="192" width="1.00003" height="56" rx="0.500015" fill="#FF9600"/><rect x="1128" y="192" width="1.00003" height="56" rx="0.500015" fill="#FF9600"/><rect x="1153" y="192" width="1.00003" height="56" rx="0.500015" fill="#FF9600"/><rect x="1178" y="192" width="1.00003" height="56" rx="0.500015" fill="#FF9600"/><rect x="1203" y="192" width="1.00003" height="56" rx="0.500015" fill="#FF9600"/><rect x="1228" y="192" width="1.00003" height="56" rx="0.500015" fill="#FF9600"/><rect x="1253" y="192" width="1.00003" height="56" rx="0.500015" fill="#FF9600"/><rect x="1278" y="192" width="1.00003" height="56" rx="0.500015" fill="#FF9600"/></g><g opacity="0.15"><rect x="496" y="356" width="1.00003" height="56" rx="0.500015" fill="#FF9600"/><rect x="521" y="356" width="1.00003" height="56" rx="0.500015" fill="#FF9600"/><rect x="546" y="356" width="1.00003" height="56" rx="0.500015" fill="#FF9600"/><rect x="571" y="356" width="1.00003" height="56" rx="0.500015" fill="#FF9600"/><rect x="596" y="356" width="1.00003" height="56" rx="0.500015" fill="#FF9600"/><rect x="621" y="356" width="1.00003" height="56" rx="0.500015" fill="#FF9600"/><rect x="646" y="356" width="1.00003" height="56" rx="0.500015" fill="#FF9600"/><rect x="671" y="356" width="1.00003" height="56" rx="0.500015" fill="#FF9600"/><rect x="696" y="356" width="1.00003" height="56" rx="0.500015" fill="#FF9600"/><rect x="721" y="356" width="1.00003" height="56" rx="0.500015" fill="#FF9600"/><rect x="746" y="356" width="1.00003" height="56" rx="0.500015" fill="#FF9600"/><rect x="771" y="356" width="1.00003" height="56" rx="0.500015" fill="#FF9600"/><rect x="796" y="356" width="1.00003" height="56" rx="0.500015" fill="#FF9600"/><rect x="821" y="356" width="1.00003" height="56" rx="0.500015" fill="#FF9600"/><rect x="846" y="356" width="1.00003" height="56" rx="0.500015" fill="#FF9600"/><rect x="871" y="356" width="1.00003" height="56" rx="0.500015" fill="#FF9600"/><rect x="896" y="356" width="1.00003" height="56" rx="0.500015" fill="#FF9600"/><rect x="921" y="356" width="1.00003" height="56" rx="0.500015" fill="#FF9600"/><rect x="946" y="356" width="1.00003" height="56" rx="0.500015" fill="#FF9600"/><rect x="971" y="356" width="1.00003" height="56" rx="0.500015" fill="#FF9600"/><rect x="996" y="356" width="1.00003" height="56" rx="0.500015" fill="#FF9600"/><rect x="1021" y="356" width="1.00003" height="56" rx="0.500015" fill="#FF9600"/><rect x="1046" y="356" width="1.00003" height="56" rx="0.500015" fill="#FF9600"/><rect x="1071" y="356" width="1.00003" height="56" rx="0.500015" fill="#FF9600"/><rect x="1096" y="356" width="1.00003" height="56" rx="0.500015" fill="#FF9600"/></g><g opacity="0.15"><rect x="782" y="-13" width="1.00003" height="56" rx="0.500015" fill="#FF9600"/><rect x="807" y="-13" width="1.00003" height="56" rx="0.500015" fill="#FF9600"/><rect x="832" y="-13" width="1.00003" height="56" rx="0.500015" fill="#FF9600"/><rect x="857" y="-13" width="1.00003" height="56" rx="0.500015" fill="#FF9600"/><rect x="882" y="-13" width="1.00003" height="56" rx="0.500015" fill="#FF9600"/><rect x="907" y="-13" width="1.00003" height="56" rx="0.500015" fill="#FF9600"/><rect x="932" y="-13" width="1.00003" height="56" rx="0.500015" fill="#FF9600"/><rect x="957" y="-13" width="1.00003" height="56" rx="0.500015" fill="#FF9600"/><rect x="982" y="-13" width="1.00003" height="56" rx="0.500015" fill="#FF9600"/><rect x="1007" y="-13" width="1.00003" height="56" rx="0.500015" fill="#FF9600"/><rect x="1032" y="-13" width="1.00003" height="56" rx="0.500015" fill="#FF9600"/><rect x="1057" y="-13" width="1.00003" height="56" rx="0.500015" fill="#FF9600"/><rect x="1082" y="-13" width="1.00003" height="56" rx="0.500015" fill="#FF9600"/></g></g><defs><clipPath id="clip0_105_9"><rect width="1280" height="385.002" rx="20" fill="white"/></clipPath></defs></svg>