<svg height="108" viewBox="0 0 121 108" width="121" xmlns="http://www.w3.org/2000/svg"><g fill="none" fill-rule="evenodd" transform="translate(1 1)"><path d="m6.4 0h105.6c3.534622 0 6.4 2.8653776 6.4 6.4v11.6h-118.4v-11.6c0-3.5346224 2.8653776-6.4 6.4-6.4z" fill="#f0f0f0"/><g stroke-width="2"><g stroke="#4c4c4c" stroke-linecap="round"><path d="m1.2 1.2 7.2 7.2" transform="translate(40 56)"/><path d="m1.2 1.2 7.2 7.2" transform="matrix(-1 0 0 1 49.6 56)"/></g><g stroke="#4c4c4c" stroke-linecap="round"><path d="m1.2 1.2 7.2 7.2" transform="translate(68.8 56)"/><path d="m1.2 1.2 7.2 7.2" transform="matrix(-1 0 0 1 78.4 56)"/></g><g transform="translate(40 56)"><path d="m32 19.4v8.45c0 2.5128956-2.0147186 4.55-4.5 4.55s-4.5-2.0371044-4.5-4.55v-8.45" stroke="#faa918"/><path d="m5.6 20h27.2" stroke="#4c4c4c" stroke-linecap="round"/></g><g stroke="#4c4c4c"><path d="m.8 18.4h116.8"/><rect height="105.6" rx="6.4" width="118.4"/></g></g><g fill="#4c4c4c"><circle cx="11.2" cy="9.6" r="3.2"/><circle cx="22.4" cy="9.6" r="3.2"/><circle cx="33.6" cy="9.6" r="3.2"/></g></g></svg>